# MagicaVoxel @ ephtracy

# material
mtllib qibao.mtl
usemtl palette

# normals
vn -1 0 0
vn 1 0 0
vn 0 0 1
vn 0 0 -1
vn 0 -1 0
vn 0 1 0

# texcoords
vt 0.0410156 0.5
vt 0.216797 0.5
vt 0.306641 0.5
vt 0.376953 0.5
vt 0.701172 0.5
vt 0.775391 0.5
vt 0.841797 0.5
vt 0.873047 0.5
vt 0.876953 0.5
vt 0.958984 0.5
vt 0.970703 0.5
vt 0.974609 0.5

# verts
v -6 10 -4
v -6 10 -6
v -6 11 -4
v -6 11 -5
v -6 11 -6
v -6 12 -3
v -6 12 -4
v -6 12 -5
v -6 12 -6
v -6 13 -4
v -6 13 -5
v -6 14 -2
v -6 14 -3
v -6 14 -6
v -6 14 -7
v -6 16 -2
v -6 16 -4
v -6 16 -5
v -6 16 -7
v -4 10 -2
v -4 10 -4
v -4 10 -6
v -4 10 -10
v -4 11 -2
v -4 11 -3
v -4 11 -4
v -4 11 -6
v -4 11 -10
v -4 12 -3
v -4 12 -4
v -3 2 -4
v -3 2 -5
v -3 3 -4
v -3 3 -5
v -3 5 -4
v -3 5 -5
v -3 6 -2
v -3 6 -3
v -3 6 -7
v -3 7 -2
v -3 7 -3
v -3 7 -7
v -3 7 -8
v -3 8 -2
v -3 8 -3
v -3 10 -3
v -3 10 -8
v -3 11 -4
v -3 11 -8
v -3 12 -3
v -3 12 -4
v -3 15 -3
v -3 15 -8
v -2 0 -2
v -2 0 -6
v -2 1 -2
v -2 1 -6
v -2 2 -3
v -2 2 -4
v -2 2 -5
v -2 2 -6
v -2 3 -3
v -2 3 -4
v -2 3 -5
v -2 3 -6
v -2 5 -2
v -2 5 -3
v -2 5 -4
v -2 5 -5
v -2 5 -6
v -2 5 -7
v -2 6 -2
v -2 6 -3
v -2 6 -7
v -2 7 -8
v -2 7 -9
v -2 8 -2
v -2 8 -3
v -2 9 -2
v -2 9 -3
v -2 10 -1
v -2 10 -2
v -2 10 -3
v -2 10 -8
v -2 10 -9
v -2 11 -1
v -2 11 -2
v -2 11 -3
v -2 11 -8
v -2 11 -9
v -2 15 -2
v -2 15 -3
v -2 15 -8
v -2 15 -9
v -1 1 -3
v -1 1 -5
v -1 2 -3
v -1 2 -5
v -1 6 -7
v -1 6 -8
v -1 7 -7
v -1 7 -8
v 1 0 -2
v 1 0 -6
v 1 1 -2
v 1 1 -3
v 1 1 -5
v 1 1 -6
v 1 2 -3
v 1 2 -4
v 1 2 -5
v 5 12 -3
v 5 12 -4
v 5 12 -5
v 5 12 -6
v 5 13 -4
v 5 13 -5
v 5 14 -2
v 5 14 -3
v 5 14 -6
v 5 14 -7
v 5 16 -2
v 5 16 -4
v 5 16 -5
v 5 16 -7
v -5 12 -3
v -5 12 -4
v -5 12 -5
v -5 12 -6
v -5 13 -4
v -5 13 -5
v -5 14 -2
v -5 14 -3
v -5 14 -6
v -5 14 -7
v -5 16 -2
v -5 16 -4
v -5 16 -5
v -5 16 -7
v -4 11 -4
v -4 11 -5
v -4 12 -4
v -4 12 -5
v 0 0 -2
v 0 0 -6
v 0 1 -2
v 0 1 -3
v 0 1 -5
v 0 1 -6
v 0 2 -3
v 0 2 -4
v 0 2 -5
v 2 1 -3
v 2 1 -5
v 2 2 -3
v 2 2 -5
v 2 6 -7
v 2 6 -8
v 2 7 -7
v 2 7 -8
v 3 0 -2
v 3 0 -6
v 3 1 -2
v 3 1 -6
v 3 2 -3
v 3 2 -4
v 3 2 -5
v 3 2 -6
v 3 3 -3
v 3 3 -4
v 3 3 -5
v 3 3 -6
v 3 5 -2
v 3 5 -3
v 3 5 -4
v 3 5 -5
v 3 5 -6
v 3 5 -7
v 3 6 -2
v 3 6 -3
v 3 6 -7
v 3 7 -8
v 3 7 -9
v 3 8 -2
v 3 8 -3
v 3 9 -2
v 3 9 -3
v 3 10 -1
v 3 10 -2
v 3 10 -3
v 3 10 -8
v 3 10 -9
v 3 11 -1
v 3 11 -2
v 3 11 -3
v 3 11 -8
v 3 11 -9
v 3 15 -2
v 3 15 -3
v 3 15 -8
v 3 15 -9
v 4 2 -4
v 4 2 -5
v 4 3 -4
v 4 3 -5
v 4 5 -4
v 4 5 -5
v 4 6 -2
v 4 6 -3
v 4 6 -7
v 4 7 -2
v 4 7 -3
v 4 7 -7
v 4 7 -8
v 4 8 -2
v 4 8 -3
v 4 10 -3
v 4 10 -8
v 4 11 -5
v 4 11 -8
v 4 12 -3
v 4 12 -4
v 4 12 -5
v 4 15 -3
v 4 15 -8
v 5 10 -2
v 5 10 -4
v 5 10 -6
v 5 10 -10
v 5 11 -2
v 5 11 -3
v 5 11 -4
v 5 11 -6
v 5 11 -10
v 5 12 -3
v 5 12 -4
v 6 11 -4
v 6 11 -5
v 6 12 -3
v 6 12 -4
v 6 12 -5
v 6 12 -6
v 6 13 -4
v 6 13 -5
v 6 14 -2
v 6 14 -3
v 6 14 -6
v 6 14 -7
v 6 16 -2
v 6 16 -4
v 6 16 -5
v 6 16 -7
v 7 10 -4
v 7 10 -6
v 7 11 -4
v 7 11 -6
v -2 10 -1
v -2 11 -1
v 3 10 -1
v 3 11 -1
v -6 14 -2
v -6 16 -2
v -5 14 -2
v -5 16 -2
v -4 10 -2
v -4 11 -2
v -3 6 -2
v -3 7 -2
v -3 8 -2
v -2 0 -2
v -2 1 -2
v -2 5 -2
v -2 6 -2
v -2 7 -2
v -2 8 -2
v -2 9 -2
v -2 10 -2
v -2 11 -2
v -2 15 -2
v -1 7 -2
v -1 9 -2
v -1 11 -2
v -1 12 -2
v -1 13 -2
v -1 14 -2
v 0 0 -2
v 0 1 -2
v 0 5 -2
v 0 6 -2
v 0 7 -2
v 0 8 -2
v 0 11 -2
v 0 12 -2
v 0 13 -2
v 0 14 -2
v 1 0 -2
v 1 1 -2
v 1 5 -2
v 1 6 -2
v 1 7 -2
v 1 8 -2
v 1 11 -2
v 1 12 -2
v 1 13 -2
v 1 14 -2
v 2 7 -2
v 2 9 -2
v 2 11 -2
v 2 12 -2
v 2 13 -2
v 2 14 -2
v 3 0 -2
v 3 1 -2
v 3 5 -2
v 3 6 -2
v 3 7 -2
v 3 8 -2
v 3 9 -2
v 3 10 -2
v 3 11 -2
v 3 15 -2
v 4 6 -2
v 4 7 -2
v 4 8 -2
v 5 10 -2
v 5 11 -2
v 5 14 -2
v 5 16 -2
v 6 14 -2
v 6 16 -2
v -6 12 -3
v -6 14 -3
v -5 12 -3
v -5 14 -3
v -4 11 -3
v -4 12 -3
v -3 8 -3
v -3 10 -3
v -3 11 -3
v -3 12 -3
v -3 15 -3
v -2 2 -3
v -2 3 -3
v -2 5 -3
v -2 8 -3
v -2 9 -3
v -2 10 -3
v -2 11 -3
v -2 15 -3
v -1 1 -3
v -1 2 -3
v 0 1 -3
v 0 2 -3
v 0 5 -3
v 1 1 -3
v 1 2 -3
v 1 5 -3
v 2 1 -3
v 2 2 -3
v 3 2 -3
v 3 3 -3
v 3 5 -3
v 3 8 -3
v 3 9 -3
v 3 10 -3
v 3 11 -3
v 3 15 -3
v 4 8 -3
v 4 10 -3
v 4 11 -3
v 4 12 -3
v 4 15 -3
v 5 11 -3
v 5 12 -3
v 5 14 -3
v 6 12 -3
v 6 14 -3
v -6 10 -4
v -6 11 -4
v -6 12 -4
v -5 11 -4
v -5 12 -4
v -4 10 -4
v -4 11 -4
v -4 12 -4
v -3 2 -4
v -3 3 -4
v -3 5 -4
v -2 2 -4
v -2 3 -4
v -2 5 -4
v 3 2 -4
v 3 3 -4
v 3 5 -4
v 4 2 -4
v 4 3 -4
v 4 5 -4
v 5 10 -4
v 5 11 -4
v 5 12 -4
v 6 11 -4
v 6 12 -4
v 7 10 -4
v 7 11 -4
v -6 13 -5
v -6 16 -5
v -5 13 -5
v -5 16 -5
v 5 13 -5
v 5 16 -5
v 6 13 -5
v 6 16 -5
v -6 13 -4
v -6 16 -4
v -5 13 -4
v -5 16 -4
v -4 11 -4
v -4 12 -4
v -3 11 -4
v -3 12 -4
v 5 13 -4
v 5 16 -4
v 6 13 -4
v 6 16 -4
v -6 11 -5
v -6 12 -5
v -5 11 -5
v -5 12 -5
v -4 11 -5
v -4 12 -5
v -3 2 -5
v -3 3 -5
v -3 5 -5
v -2 2 -5
v -2 3 -5
v -2 5 -5
v -1 1 -5
v -1 2 -5
v 0 1 -5
v 0 2 -5
v 1 1 -5
v 1 2 -5
v 2 1 -5
v 2 2 -5
v 3 2 -5
v 3 3 -5
v 3 5 -5
v 4 2 -5
v 4 3 -5
v 4 5 -5
v 4 11 -5
v 4 12 -5
v 5 11 -5
v 5 12 -5
v 6 11 -5
v 6 12 -5
v -6 10 -6
v -6 11 -6
v -6 12 -6
v -6 14 -6
v -5 12 -6
v -5 14 -6
v -4 10 -6
v -4 11 -6
v -2 0 -6
v -2 1 -6
v -2 2 -6
v -2 3 -6
v -2 5 -6
v -1 2 -6
v -1 3 -6
v 0 0 -6
v 0 1 -6
v 1 0 -6
v 1 1 -6
v 2 2 -6
v 2 3 -6
v 3 0 -6
v 3 1 -6
v 3 2 -6
v 3 3 -6
v 3 5 -6
v 5 10 -6
v 5 11 -6
v 5 12 -6
v 5 14 -6
v 6 12 -6
v 6 14 -6
v 7 10 -6
v 7 11 -6
v -6 14 -7
v -6 16 -7
v -5 14 -7
v -5 16 -7
v -3 6 -7
v -3 7 -7
v -2 5 -7
v -2 6 -7
v -1 6 -7
v -1 7 -7
v 2 6 -7
v 2 7 -7
v 3 5 -7
v 3 6 -7
v 4 6 -7
v 4 7 -7
v 5 14 -7
v 5 16 -7
v 6 14 -7
v 6 16 -7
v -3 7 -8
v -3 10 -8
v -3 11 -8
v -3 15 -8
v -2 7 -8
v -2 10 -8
v -2 11 -8
v -2 15 -8
v -1 6 -8
v -1 7 -8
v 2 6 -8
v 2 7 -8
v 3 7 -8
v 3 10 -8
v 3 11 -8
v 3 15 -8
v 4 7 -8
v 4 10 -8
v 4 11 -8
v 4 15 -8
v -2 7 -9
v -2 10 -9
v -2 11 -9
v -2 15 -9
v 3 7 -9
v 3 10 -9
v 3 11 -9
v 3 15 -9
v -4 10 -10
v -4 11 -10
v 5 10 -10
v 5 11 -10
v -2 0 -2
v 0 0 -2
v 1 0 -2
v 3 0 -2
v -2 0 -6
v 0 0 -6
v 1 0 -6
v 3 0 -6
v -2 2 -3
v -1 2 -3
v 0 2 -3
v 1 2 -3
v 2 2 -3
v 3 2 -3
v -3 2 -4
v -2 2 -4
v 0 2 -4
v 1 2 -4
v 3 2 -4
v 4 2 -4
v -3 2 -5
v -2 2 -5
v -1 2 -5
v 0 2 -5
v 1 2 -5
v 2 2 -5
v 3 2 -5
v 4 2 -5
v -2 2 -6
v -1 2 -6
v 2 2 -6
v 3 2 -6
v -2 5 -2
v 0 5 -2
v 1 5 -2
v 3 5 -2
v -2 5 -3
v 0 5 -3
v 1 5 -3
v 3 5 -3
v -2 5 -6
v 3 5 -6
v -2 5 -7
v 3 5 -7
v -3 6 -2
v -2 6 -2
v 3 6 -2
v 4 6 -2
v -3 6 -3
v -2 6 -3
v 3 6 -3
v 4 6 -3
v -3 6 -7
v -2 6 -7
v -1 6 -7
v 2 6 -7
v 3 6 -7
v 4 6 -7
v -1 6 -8
v 2 6 -8
v -3 7 -7
v -1 7 -7
v 2 7 -7
v 4 7 -7
v -3 7 -8
v -2 7 -8
v -1 7 -8
v 2 7 -8
v 3 7 -8
v 4 7 -8
v -2 7 -9
v 3 7 -9
v -2 10 -1
v 3 10 -1
v -4 10 -2
v -2 10 -2
v 3 10 -2
v 5 10 -2
v -3 10 -3
v -2 10 -3
v 3 10 -3
v 4 10 -3
v -6 10 -4
v -4 10 -4
v 5 10 -4
v 7 10 -4
v -6 10 -6
v -4 10 -6
v 5 10 -6
v 7 10 -6
v -3 10 -8
v -2 10 -8
v 3 10 -8
v 4 10 -8
v -2 10 -9
v 3 10 -9
v -4 10 -10
v 5 10 -10
v -6 12 -3
v -5 12 -3
v 5 12 -3
v 6 12 -3
v -6 12 -4
v -5 12 -4
v 5 12 -4
v 6 12 -4
v -6 12 -5
v -5 12 -5
v 5 12 -5
v 6 12 -5
v -6 12 -6
v -5 12 -6
v 5 12 -6
v 6 12 -6
v -6 14 -2
v -5 14 -2
v 5 14 -2
v 6 14 -2
v -6 14 -3
v -5 14 -3
v 5 14 -3
v 6 14 -3
v -6 14 -6
v -5 14 -6
v 5 14 -6
v 6 14 -6
v -6 14 -7
v -5 14 -7
v 5 14 -7
v 6 14 -7
v -2 1 -2
v 0 1 -2
v 1 1 -2
v 3 1 -2
v -1 1 -3
v 0 1 -3
v 1 1 -3
v 2 1 -3
v -1 1 -5
v 0 1 -5
v 1 1 -5
v 2 1 -5
v -2 1 -6
v 0 1 -6
v 1 1 -6
v 3 1 -6
v -3 5 -4
v -2 5 -4
v 3 5 -4
v 4 5 -4
v -3 5 -5
v -2 5 -5
v 3 5 -5
v 4 5 -5
v -3 8 -2
v -2 8 -2
v 3 8 -2
v 4 8 -2
v -3 8 -3
v -2 8 -3
v 3 8 -3
v 4 8 -3
v -2 11 -1
v 3 11 -1
v -4 11 -2
v -2 11 -2
v -1 11 -2
v 0 11 -2
v 1 11 -2
v 2 11 -2
v 3 11 -2
v 5 11 -2
v -4 11 -3
v -3 11 -3
v -2 11 -3
v 3 11 -3
v 4 11 -3
v 5 11 -3
v -4 11 -4
v -3 11 -4
v 6 11 -4
v 7 11 -4
v -6 11 -5
v -5 11 -5
v -4 11 -5
v 4 11 -5
v 5 11 -5
v 6 11 -5
v -6 11 -6
v -4 11 -6
v 5 11 -6
v 7 11 -6
v -3 11 -8
v -2 11 -8
v 3 11 -8
v 4 11 -8
v -2 11 -9
v 3 11 -9
v -4 11 -10
v 5 11 -10
v -4 12 -3
v -3 12 -3
v 4 12 -3
v 5 12 -3
v -5 12 -4
v -4 12 -4
v -3 12 -4
v 4 12 -4
v 5 12 -4
v -5 12 -5
v -4 12 -5
v 4 12 -5
v 5 12 -5
v -6 13 -4
v -5 13 -4
v 5 13 -4
v 6 13 -4
v -6 13 -5
v -5 13 -5
v 5 13 -5
v 6 13 -5
v -2 15 -2
v 3 15 -2
v -3 15 -3
v -2 15 -3
v 3 15 -3
v 4 15 -3
v -3 15 -8
v -2 15 -8
v 3 15 -8
v 4 15 -8
v -2 15 -9
v 3 15 -9
v -6 16 -2
v -5 16 -2
v 5 16 -2
v 6 16 -2
v -6 16 -4
v -5 16 -4
v 5 16 -4
v 6 16 -4
v -6 16 -5
v -5 16 -5
v 5 16 -5
v 6 16 -5
v -6 16 -7
v -5 16 -7
v 5 16 -7
v 6 16 -7

# faces
f 3/2/1 2/2/1 1/2/1
f 4/2/1 2/2/1 3/2/1
f 5/2/1 2/2/1 4/2/1
f 7/8/1 4/8/1 3/8/1
f 8/8/1 4/8/1 7/8/1
f 10/8/1 7/8/1 6/8/1
f 10/8/1 9/8/1 8/8/1
f 10/8/1 8/8/1 7/8/1
f 11/8/1 9/8/1 10/8/1
f 13/8/1 10/8/1 6/8/1
f 14/8/1 9/8/1 11/8/1
f 16/8/1 13/8/1 12/8/1
f 17/8/1 10/8/1 13/8/1
f 17/8/1 13/8/1 16/8/1
f 18/8/1 14/8/1 11/8/1
f 18/8/1 15/8/1 14/8/1
f 19/8/1 15/8/1 18/8/1
f 24/2/1 21/2/1 20/2/1
f 25/2/1 21/2/1 24/2/1
f 26/2/1 21/2/1 25/2/1
f 27/2/1 23/2/1 22/2/1
f 28/2/1 23/2/1 27/2/1
f 29/1/1 26/1/1 25/1/1
f 30/1/1 26/1/1 29/1/1
f 33/11/1 32/11/1 31/11/1
f 34/11/1 32/11/1 33/11/1
f 35/1/1 34/1/1 33/1/1
f 36/1/1 34/1/1 35/1/1
f 40/4/1 38/4/1 37/4/1
f 41/1/1 39/1/1 38/1/1
f 41/4/1 38/4/1 40/4/1
f 42/1/1 39/1/1 41/1/1
f 44/1/1 41/1/1 40/1/1
f 44/1/1 43/1/1 42/1/1
f 44/1/1 42/1/1 41/1/1
f 45/1/1 43/1/1 44/1/1
f 46/1/1 43/1/1 45/1/1
f 47/1/1 43/1/1 46/1/1
f 51/2/1 49/2/1 48/2/1
f 52/2/1 51/2/1 50/2/1
f 53/2/1 49/2/1 51/2/1
f 53/2/1 51/2/1 52/2/1
f 56/1/1 55/1/1 54/1/1
f 57/1/1 55/1/1 56/1/1
f 62/5/1 59/5/1 58/5/1
f 63/5/1 59/5/1 62/5/1
f 64/5/1 61/5/1 60/5/1
f 65/5/1 61/5/1 64/5/1
f 67/1/1 63/1/1 62/1/1
f 68/1/1 63/1/1 67/1/1
f 69/1/1 65/1/1 64/1/1
f 70/1/1 65/1/1 69/1/1
f 72/1/1 70/1/1 69/1/1
f 72/1/1 71/1/1 70/1/1
f 72/1/1 69/1/1 68/1/1
f 72/1/1 67/1/1 66/1/1
f 72/1/1 68/1/1 67/1/1
f 73/1/1 71/1/1 72/1/1
f 74/1/1 71/1/1 73/1/1
f 79/9/1 78/9/1 77/9/1
f 80/9/1 78/9/1 79/9/1
f 82/1/1 80/1/1 79/1/1
f 83/1/1 80/1/1 82/1/1
f 84/1/1 76/1/1 75/1/1
f 85/1/1 76/1/1 84/1/1
f 86/2/1 82/2/1 81/2/1
f 87/2/1 82/2/1 86/2/1
f 91/2/1 88/2/1 87/2/1
f 92/2/1 88/2/1 91/2/1
f 93/2/1 90/2/1 89/2/1
f 94/2/1 90/2/1 93/2/1
f 97/1/1 96/1/1 95/1/1
f 98/1/1 96/1/1 97/1/1
f 101/1/1 100/1/1 99/1/1
f 102/1/1 100/1/1 101/1/1
f 105/1/1 104/1/1 103/1/1
f 106/1/1 104/1/1 105/1/1
f 107/1/1 104/1/1 106/1/1
f 108/1/1 104/1/1 107/1/1
f 109/1/1 107/1/1 106/1/1
f 110/1/1 107/1/1 109/1/1
f 111/1/1 107/1/1 110/1/1
f 116/8/1 113/8/1 112/8/1
f 116/8/1 115/8/1 114/8/1
f 116/8/1 114/8/1 113/8/1
f 117/8/1 115/8/1 116/8/1
f 119/8/1 116/8/1 112/8/1
f 120/8/1 115/8/1 117/8/1
f 122/8/1 119/8/1 118/8/1
f 123/8/1 116/8/1 119/8/1
f 123/8/1 119/8/1 122/8/1
f 124/8/1 121/8/1 120/8/1
f 124/8/1 120/8/1 117/8/1
f 125/8/1 121/8/1 124/8/1
f 126/8/2 127/8/2 130/8/2
f 128/8/2 129/8/2 130/8/2
f 127/8/2 128/8/2 130/8/2
f 130/8/2 129/8/2 131/8/2
f 126/8/2 130/8/2 133/8/2
f 131/8/2 129/8/2 134/8/2
f 132/8/2 133/8/2 136/8/2
f 133/8/2 130/8/2 137/8/2
f 136/8/2 133/8/2 137/8/2
f 134/8/2 135/8/2 138/8/2
f 131/8/2 134/8/2 138/8/2
f 138/8/2 135/8/2 139/8/2
f 140/9/2 141/9/2 142/9/2
f 142/9/2 141/9/2 143/9/2
f 144/1/2 145/1/2 146/1/2
f 146/1/2 145/1/2 147/1/2
f 147/1/2 145/1/2 148/1/2
f 148/1/2 145/1/2 149/1/2
f 147/1/2 148/1/2 150/1/2
f 150/1/2 148/1/2 151/1/2
f 151/1/2 148/1/2 152/1/2
f 153/1/2 154/1/2 155/1/2
f 155/1/2 154/1/2 156/1/2
f 157/1/2 158/1/2 159/1/2
f 159/1/2 158/1/2 160/1/2
f 161/1/2 162/1/2 163/1/2
f 163/1/2 162/1/2 164/1/2
f 165/5/2 166/5/2 169/5/2
f 169/5/2 166/5/2 170/5/2
f 167/5/2 168/5/2 171/5/2
f 171/5/2 168/5/2 172/5/2
f 169/1/2 170/1/2 174/1/2
f 174/1/2 170/1/2 175/1/2
f 171/1/2 172/1/2 176/1/2
f 176/1/2 172/1/2 177/1/2
f 176/1/2 177/1/2 179/1/2
f 177/1/2 178/1/2 179/1/2
f 175/1/2 176/1/2 179/1/2
f 173/1/2 174/1/2 179/1/2
f 174/1/2 175/1/2 179/1/2
f 179/1/2 178/1/2 180/1/2
f 180/1/2 178/1/2 181/1/2
f 184/9/2 185/9/2 186/9/2
f 186/9/2 185/9/2 187/9/2
f 186/1/2 187/1/2 189/1/2
f 189/1/2 187/1/2 190/1/2
f 182/1/2 183/1/2 191/1/2
f 191/1/2 183/1/2 192/1/2
f 188/2/2 189/2/2 193/2/2
f 193/2/2 189/2/2 194/2/2
f 194/2/2 195/2/2 198/2/2
f 198/2/2 195/2/2 199/2/2
f 196/2/2 197/2/2 200/2/2
f 200/2/2 197/2/2 201/2/2
f 202/12/2 203/12/2 204/12/2
f 204/12/2 203/12/2 205/12/2
f 204/1/2 205/1/2 206/1/2
f 206/1/2 205/1/2 207/1/2
f 208/4/2 209/4/2 211/4/2
f 209/1/2 210/1/2 212/1/2
f 211/4/2 209/4/2 212/4/2
f 212/1/2 210/1/2 213/1/2
f 211/1/2 212/1/2 215/1/2
f 213/1/2 214/1/2 215/1/2
f 212/1/2 213/1/2 215/1/2
f 215/1/2 214/1/2 216/1/2
f 216/1/2 214/1/2 217/1/2
f 217/1/2 214/1/2 218/1/2
f 219/2/2 220/2/2 223/2/2
f 221/2/2 222/2/2 224/2/2
f 222/2/2 223/2/2 224/2/2
f 223/2/2 220/2/2 225/2/2
f 224/2/2 223/2/2 225/2/2
f 226/2/2 227/2/2 230/2/2
f 230/2/2 227/2/2 231/2/2
f 231/2/2 227/2/2 232/2/2
f 228/2/2 229/2/2 233/2/2
f 233/2/2 229/2/2 234/2/2
f 231/1/2 232/1/2 235/1/2
f 235/1/2 232/1/2 236/1/2
f 237/8/2 238/8/2 240/8/2
f 240/8/2 238/8/2 241/8/2
f 239/8/2 240/8/2 243/8/2
f 241/8/2 242/8/2 243/8/2
f 240/8/2 241/8/2 243/8/2
f 243/8/2 242/8/2 244/8/2
f 239/8/2 243/8/2 246/8/2
f 244/8/2 242/8/2 247/8/2
f 245/8/2 246/8/2 249/8/2
f 246/8/2 243/8/2 250/8/2
f 249/8/2 246/8/2 250/8/2
f 247/8/2 248/8/2 251/8/2
f 244/8/2 247/8/2 251/8/2
f 251/8/2 248/8/2 252/8/2
f 253/2/2 254/2/2 255/2/2
f 255/2/2 254/2/2 256/2/2
f 259/2/3 258/2/3 257/2/3
f 260/2/3 258/2/3 259/2/3
f 263/8/3 262/8/3 261/8/3
f 264/8/3 262/8/3 263/8/3
f 273/4/3 268/4/3 267/4/3
f 274/1/3 269/1/3 268/1/3
f 274/4/3 268/4/3 273/4/3
f 275/1/3 269/1/3 274/1/3
f 277/2/3 266/2/3 265/2/3
f 278/2/3 266/2/3 277/2/3
f 280/9/3 276/9/3 275/9/3
f 280/1/3 273/1/3 272/1/3
f 280/1/3 274/1/3 273/1/3
f 280/9/3 275/9/3 274/9/3
f 281/1/3 277/1/3 276/1/3
f 281/9/3 276/9/3 280/9/3
f 282/2/3 279/2/3 278/2/3
f 283/2/3 279/2/3 282/2/3
f 284/2/3 279/2/3 283/2/3
f 285/2/3 279/2/3 284/2/3
f 286/1/3 271/1/3 270/1/3
f 287/1/3 271/1/3 286/1/3
f 288/1/3 280/1/3 272/1/3
f 288/1/3 281/1/3 280/1/3
f 289/1/3 281/1/3 288/1/3
f 290/1/3 281/1/3 289/1/3
f 291/1/3 281/1/3 290/1/3
f 292/10/3 283/10/3 282/10/3
f 293/2/3 284/2/3 283/2/3
f 293/10/3 283/10/3 292/10/3
f 294/10/3 285/10/3 284/10/3
f 294/2/3 284/2/3 293/2/3
f 295/2/3 279/2/3 285/2/3
f 295/10/3 285/10/3 294/10/3
f 298/7/3 289/7/3 288/7/3
f 299/1/3 290/1/3 289/1/3
f 299/7/3 289/7/3 298/7/3
f 300/6/3 291/6/3 290/6/3
f 300/1/3 290/1/3 299/1/3
f 301/1/3 281/1/3 291/1/3
f 301/6/3 291/6/3 300/6/3
f 302/2/3 293/2/3 292/2/3
f 303/10/3 294/10/3 293/10/3
f 303/2/3 293/2/3 302/2/3
f 304/2/3 295/2/3 294/2/3
f 304/10/3 294/10/3 303/10/3
f 305/2/3 279/2/3 295/2/3
f 305/2/3 295/2/3 304/2/3
f 306/1/3 300/1/3 299/1/3
f 306/1/3 299/1/3 298/1/3
f 306/1/3 301/1/3 300/1/3
f 307/1/3 277/1/3 281/1/3
f 307/1/3 301/1/3 306/1/3
f 307/1/3 281/1/3 301/1/3
f 308/10/3 303/10/3 302/10/3
f 309/2/3 304/2/3 303/2/3
f 309/10/3 303/10/3 308/10/3
f 310/10/3 305/10/3 304/10/3
f 310/2/3 304/2/3 309/2/3
f 311/2/3 279/2/3 305/2/3
f 311/10/3 305/10/3 310/10/3
f 312/1/3 297/1/3 296/1/3
f 313/1/3 297/1/3 312/1/3
f 314/1/3 306/1/3 298/1/3
f 315/1/3 306/1/3 314/1/3
f 316/9/3 307/9/3 306/9/3
f 316/1/3 306/1/3 315/1/3
f 317/9/3 307/9/3 316/9/3
f 318/1/3 277/1/3 307/1/3
f 318/9/3 307/9/3 317/9/3
f 319/1/3 277/1/3 318/1/3
f 320/2/3 310/2/3 309/2/3
f 320/2/3 309/2/3 308/2/3
f 320/2/3 311/2/3 310/2/3
f 321/2/3 279/2/3 311/2/3
f 321/2/3 311/2/3 320/2/3
f 322/4/3 316/4/3 315/4/3
f 323/1/3 317/1/3 316/1/3
f 323/4/3 316/4/3 322/4/3
f 324/1/3 317/1/3 323/1/3
f 325/2/3 320/2/3 319/2/3
f 326/2/3 320/2/3 325/2/3
f 329/8/3 328/8/3 327/8/3
f 330/8/3 328/8/3 329/8/3
f 333/8/3 332/8/3 331/8/3
f 334/8/3 332/8/3 333/8/3
f 339/1/3 336/1/3 335/1/3
f 340/1/3 336/1/3 339/1/3
f 345/1/3 338/1/3 337/1/3
f 346/1/3 338/1/3 345/1/3
f 347/1/3 338/1/3 346/1/3
f 348/2/3 340/2/3 339/2/3
f 348/2/3 341/2/3 340/2/3
f 349/2/3 341/2/3 348/2/3
f 351/5/3 343/5/3 342/5/3
f 352/1/3 351/1/3 350/1/3
f 353/5/3 343/5/3 351/5/3
f 353/1/3 351/1/3 352/1/3
f 354/1/3 344/1/3 343/1/3
f 356/5/3 343/5/3 353/5/3
f 357/1/3 354/1/3 343/1/3
f 358/1/3 356/1/3 355/1/3
f 359/5/3 343/5/3 356/5/3
f 359/1/3 356/1/3 358/1/3
f 360/5/3 343/5/3 359/5/3
f 361/1/3 357/1/3 343/1/3
f 361/5/3 343/5/3 360/5/3
f 362/1/3 357/1/3 361/1/3
f 368/1/3 365/1/3 364/1/3
f 368/1/3 364/1/3 363/1/3
f 369/1/3 365/1/3 368/1/3
f 370/2/3 367/2/3 366/2/3
f 371/2/3 367/2/3 370/2/3
f 372/2/3 367/2/3 371/2/3
f 373/1/3 371/1/3 370/1/3
f 374/1/3 371/1/3 373/1/3
f 376/8/3 375/8/3 374/8/3
f 377/8/3 375/8/3 376/8/3
f 381/2/3 379/2/3 378/2/3
f 381/8/3 380/8/3 379/8/3
f 382/8/3 380/8/3 381/8/3
f 383/2/3 381/2/3 378/2/3
f 384/9/3 382/9/3 381/9/3
f 384/2/3 381/2/3 383/2/3
f 385/9/3 382/9/3 384/9/3
f 389/11/3 387/11/3 386/11/3
f 390/1/3 388/1/3 387/1/3
f 390/11/3 387/11/3 389/11/3
f 391/1/3 388/1/3 390/1/3
f 395/12/3 393/12/3 392/12/3
f 396/1/3 394/1/3 393/1/3
f 396/12/3 393/12/3 395/12/3
f 397/1/3 394/1/3 396/1/3
f 401/2/3 399/2/3 398/2/3
f 401/8/3 400/8/3 399/8/3
f 402/8/3 400/8/3 401/8/3
f 403/2/3 401/2/3 398/2/3
f 404/2/3 401/2/3 403/2/3
f 407/8/3 406/8/3 405/8/3
f 408/8/3 406/8/3 407/8/3
f 411/8/3 410/8/3 409/8/3
f 412/8/3 410/8/3 411/8/3
f 413/8/4 414/8/4 415/8/4
f 415/8/4 414/8/4 416/8/4
f 417/1/4 418/1/4 419/1/4
f 419/1/4 418/1/4 420/1/4
f 421/8/4 422/8/4 423/8/4
f 423/8/4 422/8/4 424/8/4
f 425/8/4 426/8/4 427/8/4
f 427/8/4 426/8/4 428/8/4
f 427/9/4 428/9/4 429/9/4
f 429/9/4 428/9/4 430/9/4
f 431/11/4 432/11/4 434/11/4
f 432/1/4 433/1/4 435/1/4
f 434/11/4 432/11/4 435/11/4
f 435/1/4 433/1/4 436/1/4
f 437/1/4 438/1/4 439/1/4
f 439/1/4 438/1/4 440/1/4
f 441/1/4 442/1/4 443/1/4
f 443/1/4 442/1/4 444/1/4
f 445/12/4 446/12/4 448/12/4
f 446/1/4 447/1/4 449/1/4
f 448/12/4 446/12/4 449/12/4
f 449/1/4 447/1/4 450/1/4
f 451/9/4 452/9/4 453/9/4
f 453/9/4 452/9/4 454/9/4
f 453/8/4 454/8/4 455/8/4
f 455/8/4 454/8/4 456/8/4
f 459/8/4 460/8/4 461/8/4
f 461/8/4 460/8/4 462/8/4
f 457/2/4 458/2/4 463/2/4
f 463/2/4 458/2/4 464/2/4
f 467/5/4 468/5/4 470/5/4
f 468/1/4 469/1/4 471/1/4
f 470/5/4 468/5/4 471/5/4
f 465/1/4 466/1/4 472/1/4
f 472/1/4 466/1/4 473/1/4
f 470/9/4 471/9/4 476/9/4
f 471/1/4 469/1/4 477/1/4
f 476/9/4 471/9/4 477/9/4
f 474/1/4 475/1/4 478/1/4
f 478/1/4 475/1/4 479/1/4
f 476/5/4 477/5/4 480/5/4
f 477/1/4 469/1/4 481/1/4
f 480/5/4 477/5/4 481/5/4
f 481/1/4 469/1/4 482/1/4
f 485/8/4 486/8/4 487/8/4
f 487/8/4 486/8/4 488/8/4
f 483/2/4 484/2/4 489/2/4
f 489/2/4 484/2/4 490/2/4
f 491/8/4 492/8/4 493/8/4
f 493/8/4 492/8/4 494/8/4
f 495/1/4 496/1/4 498/1/4
f 498/1/4 496/1/4 499/1/4
f 497/1/4 498/1/4 499/1/4
f 499/1/4 496/1/4 500/1/4
f 497/1/4 499/1/4 501/1/4
f 497/1/4 501/1/4 503/1/4
f 501/1/4 502/1/4 503/1/4
f 503/1/4 502/1/4 504/1/4
f 504/1/4 502/1/4 505/1/4
f 505/1/4 502/1/4 506/1/4
f 507/8/4 508/8/4 509/8/4
f 509/8/4 508/8/4 510/8/4
f 511/1/4 512/1/4 515/1/4
f 515/1/4 512/1/4 516/1/4
f 513/2/4 514/2/4 517/2/4
f 517/2/4 514/2/4 518/2/4
f 519/1/4 520/1/4 521/1/4
f 521/1/4 520/1/4 522/1/4
f 523/1/4 524/1/4 527/1/4
f 527/1/4 524/1/4 528/1/4
f 525/2/4 526/2/4 529/2/4
f 529/2/4 526/2/4 530/2/4
f 531/1/4 532/1/4 535/1/4
f 535/1/4 532/1/4 536/1/4
f 533/2/4 534/2/4 537/2/4
f 537/2/4 534/2/4 538/2/4
f 539/2/4 540/2/4 541/2/4
f 541/2/4 540/2/4 542/2/4
f 547/1/5 544/1/5 543/1/5
f 548/1/5 544/1/5 547/1/5
f 549/1/5 546/1/5 545/1/5
f 550/1/5 546/1/5 549/1/5
f 558/5/5 552/5/5 551/5/5
f 559/5/5 554/5/5 553/5/5
f 560/5/5 554/5/5 559/5/5
f 561/5/5 556/5/5 555/5/5
f 563/11/5 558/11/5 557/11/5
f 564/5/5 552/5/5 558/5/5
f 564/11/5 558/11/5 563/11/5
f 565/5/5 552/5/5 564/5/5
f 566/1/5 560/1/5 559/1/5
f 567/1/5 560/1/5 566/1/5
f 568/5/5 561/5/5 555/5/5
f 569/12/5 562/12/5 561/12/5
f 569/5/5 561/5/5 568/5/5
f 570/12/5 562/12/5 569/12/5
f 571/5/5 565/5/5 564/5/5
f 572/9/5 568/9/5 567/9/5
f 572/5/5 565/5/5 571/5/5
f 572/9/5 567/9/5 566/9/5
f 572/9/5 566/9/5 565/9/5
f 573/5/5 569/5/5 568/5/5
f 573/9/5 568/9/5 572/9/5
f 574/5/5 569/5/5 573/5/5
f 579/1/5 576/1/5 575/1/5
f 580/7/5 577/7/5 576/7/5
f 580/1/5 576/1/5 579/1/5
f 581/1/5 578/1/5 577/1/5
f 581/7/5 577/7/5 580/7/5
f 582/1/5 578/1/5 581/1/5
f 585/1/5 584/1/5 583/1/5
f 586/1/5 584/1/5 585/1/5
f 591/4/5 588/4/5 587/4/5
f 592/4/5 588/4/5 591/4/5
f 593/4/5 590/4/5 589/4/5
f 594/4/5 590/4/5 593/4/5
f 595/1/5 592/1/5 591/1/5
f 596/1/5 592/1/5 595/1/5
f 599/1/5 594/1/5 593/1/5
f 600/1/5 594/1/5 599/1/5
f 601/1/5 598/1/5 597/1/5
f 602/1/5 598/1/5 601/1/5
f 607/1/5 604/1/5 603/1/5
f 608/1/5 604/1/5 607/1/5
f 609/1/5 604/1/5 608/1/5
f 610/1/5 606/1/5 605/1/5
f 611/1/5 606/1/5 610/1/5
f 612/1/5 606/1/5 611/1/5
f 613/1/5 609/1/5 608/1/5
f 613/1/5 611/1/5 610/1/5
f 613/1/5 610/1/5 609/1/5
f 614/1/5 611/1/5 613/1/5
f 618/2/5 616/2/5 615/2/5
f 619/2/5 616/2/5 618/2/5
f 621/2/5 618/2/5 617/2/5
f 622/2/5 618/2/5 621/2/5
f 623/2/5 620/2/5 619/2/5
f 624/2/5 620/2/5 623/2/5
f 626/2/5 621/2/5 617/2/5
f 627/2/5 620/2/5 624/2/5
f 629/2/5 626/2/5 625/2/5
f 630/2/5 621/2/5 626/2/5
f 630/2/5 626/2/5 629/2/5
f 631/2/5 628/2/5 627/2/5
f 631/2/5 627/2/5 624/2/5
f 632/2/5 628/2/5 631/2/5
f 633/2/5 621/2/5 630/2/5
f 636/2/5 631/2/5 624/2/5
f 637/2/5 634/2/5 633/2/5
f 638/2/5 636/2/5 635/2/5
f 639/2/5 637/2/5 633/2/5
f 639/2/5 638/2/5 637/2/5
f 639/2/5 633/2/5 630/2/5
f 640/2/5 636/2/5 638/2/5
f 640/2/5 638/2/5 639/2/5
f 640/2/5 631/2/5 636/2/5
f 645/8/5 642/8/5 641/8/5
f 646/8/5 642/8/5 645/8/5
f 647/8/5 644/8/5 643/8/5
f 648/8/5 644/8/5 647/8/5
f 653/8/5 650/8/5 649/8/5
f 654/8/5 650/8/5 653/8/5
f 655/8/5 652/8/5 651/8/5
f 656/8/5 652/8/5 655/8/5
f 661/8/5 658/8/5 657/8/5
f 662/8/5 658/8/5 661/8/5
f 663/8/5 660/8/5 659/8/5
f 664/8/5 660/8/5 663/8/5
f 669/8/5 666/8/5 665/8/5
f 670/8/5 666/8/5 669/8/5
f 671/8/5 668/8/5 667/8/5
f 672/8/5 668/8/5 671/8/5
f 673/1/6 674/1/6 677/1/6
f 677/1/6 674/1/6 678/1/6
f 675/1/6 676/1/6 679/1/6
f 679/1/6 676/1/6 680/1/6
f 673/1/6 677/1/6 681/1/6
f 680/1/6 676/1/6 684/1/6
f 681/1/6 682/1/6 685/1/6
f 673/1/6 681/1/6 685/1/6
f 685/1/6 682/1/6 686/1/6
f 683/1/6 684/1/6 687/1/6
f 684/1/6 676/1/6 688/1/6
f 687/1/6 684/1/6 688/1/6
f 689/1/6 690/1/6 693/1/6
f 693/1/6 690/1/6 694/1/6
f 691/1/6 692/1/6 695/1/6
f 695/1/6 692/1/6 696/1/6
f 697/1/6 698/1/6 701/1/6
f 701/1/6 698/1/6 702/1/6
f 699/1/6 700/1/6 703/1/6
f 703/1/6 700/1/6 704/1/6
f 705/2/6 706/2/6 708/2/6
f 708/2/6 706/2/6 709/2/6
f 709/2/6 706/2/6 710/2/6
f 710/2/6 706/2/6 711/2/6
f 711/2/6 706/2/6 712/2/6
f 712/2/6 706/2/6 713/2/6
f 707/2/6 708/2/6 715/2/6
f 715/2/6 708/2/6 716/2/6
f 716/2/6 708/2/6 717/2/6
f 713/2/6 714/2/6 718/2/6
f 718/2/6 714/2/6 719/2/6
f 719/2/6 714/2/6 720/2/6
f 721/2/6 722/2/6 727/2/6
f 723/2/6 724/2/6 730/2/6
f 725/2/6 726/2/6 731/2/6
f 726/2/6 727/2/6 731/2/6
f 727/2/6 722/2/6 732/2/6
f 731/2/6 727/2/6 732/2/6
f 729/2/6 730/2/6 733/2/6
f 728/2/6 729/2/6 733/2/6
f 730/2/6 724/2/6 734/2/6
f 733/2/6 730/2/6 734/2/6
f 732/2/6 722/2/6 735/2/6
f 728/2/6 733/2/6 738/2/6
f 735/2/6 736/2/6 739/2/6
f 737/2/6 738/2/6 740/2/6
f 735/2/6 739/2/6 741/2/6
f 739/2/6 740/2/6 741/2/6
f 732/2/6 735/2/6 741/2/6
f 740/2/6 738/2/6 742/2/6
f 741/2/6 740/2/6 742/2/6
f 738/2/6 733/2/6 742/2/6
f 743/1/6 744/1/6 748/1/6
f 748/1/6 744/1/6 749/1/6
f 745/1/6 746/1/6 750/1/6
f 750/1/6 746/1/6 751/1/6
f 747/9/6 748/9/6 752/9/6
f 752/9/6 748/9/6 753/9/6
f 750/9/6 751/9/6 754/9/6
f 754/9/6 751/9/6 755/9/6
f 756/8/6 757/8/6 760/8/6
f 760/8/6 757/8/6 761/8/6
f 758/8/6 759/8/6 762/8/6
f 762/8/6 759/8/6 763/8/6
f 764/2/6 765/2/6 767/2/6
f 767/2/6 765/2/6 768/2/6
f 766/2/6 767/2/6 770/2/6
f 768/2/6 769/2/6 770/2/6
f 767/2/6 768/2/6 770/2/6
f 770/2/6 769/2/6 771/2/6
f 771/2/6 769/2/6 772/2/6
f 772/2/6 769/2/6 773/2/6
f 771/2/6 772/2/6 774/2/6
f 774/2/6 772/2/6 775/2/6
f 776/8/6 777/8/6 780/8/6
f 780/8/6 777/8/6 781/8/6
f 778/8/6 779/8/6 782/8/6
f 782/8/6 779/8/6 783/8/6
f 784/8/6 785/8/6 788/8/6
f 788/8/6 785/8/6 789/8/6
f 786/8/6 787/8/6 790/8/6
f 790/8/6 787/8/6 791/8/6
